<?xml version="1.0" encoding="UTF-8"?>
<svg version="1.1" xmlns="http://www.w3.org/2000/svg" width="864" height="566">
<path d="M0 0 C285.12 0 570.24 0 864 0 C864 186.78 864 373.56 864 566 C578.88 566 293.76 566 0 566 C0 379.22 0 192.44 0 0 Z " fill="#FDFDFD" transform="translate(0,0)"/>
<path d="M0 0 C21.12 0 42.24 0 64 0 C66.64 4.62 69.28 9.24 72 14 C83.09049788 29.13940981 97.03264112 39.26623043 115 45 C115.77085937 45.24621094 116.54171875 45.49242187 117.3359375 45.74609375 C136.75900344 50.68704912 158.70397102 46.45969998 176 37 C180.51970367 34.12574271 184.94209121 31.13983959 188.66796875 27.265625 C190 26 190 26 192 26 C192.37898438 25.14921875 192.37898438 25.14921875 192.765625 24.28125 C194.16113949 21.7021979 195.83849618 19.72267886 197.75 17.5 C202.16391023 12.10343093 205.13059487 6.32573404 208 0 C211.65136827 -1.02909127 214.38095089 -1.23676188 218 0 C221.22449094 4.04936071 223.48360273 8.49345286 225.90869141 13.05078125 C235.40833604 30.01837918 253.57481392 40.35110625 271.625 46 C292.17971563 50.43112785 314.22631024 46.21203688 332.28125 35.77734375 C345.50772476 27.13072591 354.19418162 16.19327863 361.296875 2.203125 C361.85890625 1.47609375 362.4209375 0.7490625 363 0 C364.65 0 366.3 0 368 0 C368 14.85 368 29.7 368 45 C381.62625664 44.99624021 381.62625664 44.99624021 395.25195312 44.9375 C400.82311441 44.90133682 406.3937924 44.87111554 411.96508789 44.87988281 C416.46535384 44.88655161 420.96464424 44.86356981 425.46470833 44.82144547 C427.16714051 44.81044679 428.86967328 44.80949191 430.57211113 44.81957626 C450.89391088 44.92435603 468.75164403 38.50343751 483.69140625 24.3046875 C484.45324219 23.54414063 485.21507812 22.78359375 486 22 C486.71027344 21.30132812 487.42054688 20.60265625 488.15234375 19.8828125 C493.88538844 13.8746697 497.27753071 7.36738713 501 0 C509.58 0 518.16 0 527 0 C527 2 527 2 525.04296875 4.07421875 C524.58583496 4.5129834 524.12870117 4.95174805 523.65771484 5.40380859 C521.68713153 7.30125685 519.77721844 9.25247313 517.86328125 11.20703125 C516.34646502 12.74229703 514.82953531 14.2774507 513.3125 15.8125 C512.15524414 16.99489258 512.15524414 16.99489258 510.97460938 18.20117188 C510.23662109 18.94560547 509.49863281 19.69003906 508.73828125 20.45703125 C508.06837158 21.13741455 507.39846191 21.81779785 506.70825195 22.51879883 C505 24 505 24 503 24 C513.18962766 35.59509354 529.4046957 42.17975257 544 46 C544.74121094 46.1959375 545.48242188 46.391875 546.24609375 46.59375 C561.80330479 48.88871447 579.09428168 47.66573553 593 40 C598.70782755 35.74464576 603.38362455 31.1321149 607 25 C607.33 25 607.66 25 608 25 C608 44.47 608 63.94 608 84 C397.46 84 186.92 84 -30 84 C-30 71.13 -30 58.26 -30 45 C-20.1 45 -10.2 45 0 45 C0 30.15 0 15.3 0 0 Z " fill="#F7CE77" transform="translate(151,388)"/>
<path d="M0 0 C5.59958108 4.4247371 10.56816607 9.17797224 14.9296875 14.828125 C15.44015625 15.47910156 15.950625 16.13007813 16.4765625 16.80078125 C27.89969541 32.55175059 30.88900337 51.73526994 28.4296875 70.6796875 C24.48481158 90.89717657 14.02453544 107.14671873 -2.7578125 119.140625 C-19.13583448 129.4456595 -39.12155078 133.48778737 -58.15527344 129.37792969 C-77.17069294 124.59969607 -93.6976348 113.89826197 -104.14746094 97.08862305 C-114.77987744 79.22507333 -117.34196353 59.91177168 -112.57519531 39.72949219 C-109.04542325 26.43652079 -101.57868584 15.53356307 -92.0703125 5.828125 C-91.47863281 5.20035156 -90.88695312 4.57257813 -90.27734375 3.92578125 C-66.43669278 -19.28332929 -26.02770708 -18.41145691 0 0 Z " fill="#5D402B" transform="translate(330.0703125,299.171875)"/>
<path d="M0 0 C13.97312408 11.9606283 24.32281823 27.64226427 26.6875 46.1875 C28.10177072 69.22271002 23.53261743 88.97513394 8.15234375 106.6953125 C-6.64345983 121.65525336 -25.38503279 128.95358688 -46.2109375 129.21484375 C-65.74963146 128.96062282 -83.35741072 120.63970318 -97.3125 107.1875 C-112.68581109 89.68035393 -117.65412726 70.36704137 -116.48388672 47.58691406 C-115.2409297 30.1855158 -104.96379526 14.37743123 -92.6875 2.5625 C-66.38565965 -20.19483507 -27.50397629 -20.97760904 0 0 Z " fill="#5D402B" transform="translate(486.3125,300.8125)"/>
<path d="M0 0 C92.20876025 0 92.20876025 0 112.4375 18.875 C123.61458664 30.95962786 130.41255229 46.82376797 130.3125 63.25 C130.30831055 64.18295898 130.30412109 65.11591797 130.29980469 66.07714844 C130.18989883 72.7767286 129.50618914 78.73452714 127 85 C126.7215625 85.74765625 126.443125 86.4953125 126.15625 87.265625 C120.66488051 100.80469115 111.90956268 111.75390219 99.06640625 118.80859375 C96.87271799 119.95435399 96.87271799 119.95435399 95 122 C100.94556311 131.59007895 106.97744797 141.12279317 113.0625 150.625 C113.75085938 151.69999756 114.43921875 152.77499512 115.1484375 153.88256836 C118.09946999 158.48720881 121.05408689 163.0893606 124.02734375 167.6796875 C124.4545874 168.3401709 124.88183105 169.0006543 125.32202148 169.68115234 C126.41045609 171.36174049 127.50196602 173.04033582 128.59375 174.71875 C130 177 130 177 130 178 C99.61608336 181.95117354 99.61608336 181.95117354 90.90185547 175.8203125 C85.78223386 170.035292 82.59338781 163.2554314 79.49365234 156.23242188 C77.35650404 151.60740659 74.61899287 147.50770287 71.75 143.3125 C70.90804964 142.01913968 70.06925569 140.72371635 69.234375 139.42578125 C68.11573835 137.69711088 66.98737647 135.98169589 65.81835938 134.28662109 C63 130.19605134 63 130.19605134 63 128 C55.74 128 48.48 128 41 128 C41.69867188 126.26492187 42.39734375 124.52984375 43.1171875 122.7421875 C44.03655024 120.45316191 44.95581599 118.16409737 45.875 115.875 C46.33519531 114.73289062 46.79539063 113.59078125 47.26953125 112.4140625 C47.93662109 110.75117188 47.93662109 110.75117188 48.6171875 109.0546875 C49.22989502 107.53077393 49.22989502 107.53077393 49.85498047 105.97607422 C50.99621654 103.00983378 52.0187609 100.02253169 53 97 C53.60360352 97.00112793 54.20720703 97.00225586 54.82910156 97.00341797 C68.62517833 96.94293193 78.86618858 96.57627306 89.9375 87.625 C97.83274019 77.57651249 100.10110393 68.87340032 99 56 C98.11338776 52.6500435 96.81848918 49.9370993 95 47 C94.649375 46.37738281 94.29875 45.75476563 93.9375 45.11328125 C88.32582243 36.13070013 80.04429407 33.73935293 70 31 C50.695 30.505 50.695 30.505 31 30 C31 78.84 31 127.68 31 178 C20.77 178 10.54 178 0 178 C0 119.26 0 60.52 0 0 Z " fill="#5E412C" transform="translate(121,95)"/>
<path d="M0 0 C10.23 0 20.46 0 31 0 C31 24.42 31 48.84 31 74 C55.42 74 79.84 74 105 74 C105 49.58 105 25.16 105 0 C114.9 0 124.8 0 135 0 C135 58.74 135 117.48 135 178 C125.1 178 115.2 178 105 178 C105 153.58 105 129.16 105 104 C80.58 104 56.16 104 31 104 C31 128.42 31 152.84 31 178 C20.77 178 10.54 178 0 178 C0 119.26 0 60.52 0 0 Z " fill="#5D412C" transform="translate(574,95)"/>
<path d="M0 0 C11.22 0 22.44 0 34 0 C36.6296875 5.878125 36.6296875 5.878125 39.3125 11.875 C45.30969975 25.26458679 51.35157654 38.63374534 57.40386963 51.99850464 C62.97544899 64.30223564 68.52838024 76.61413303 74.06304932 88.93450928 C80.10038335 102.37341888 86.17472703 115.79414896 92.3125 129.1875 C97.39292331 140.27440996 102.44325236 151.37397405 107.4375 162.5 C107.85740707 163.43360855 107.85740707 163.43360855 108.28579712 164.38607788 C109.06584169 166.12124465 109.84352983 167.85747018 110.62109375 169.59375 C111.27742798 171.05844727 111.27742798 171.05844727 111.94702148 172.55273438 C113 175 113 175 114 178 C102.78 178 91.56 178 80 178 C77.24916707 171.89620738 74.49900777 165.79211455 71.75 159.6875 C71.33784241 158.77231598 70.92568481 157.85713196 70.5010376 156.91421509 C65.59514131 146.01862833 60.7077056 135.11577167 55.875 124.1875 C51.0888913 113.37215909 46.17668659 102.61730949 41.24307251 91.86877441 C35.04448164 78.3581633 28.98052503 64.79000951 22.96386719 51.19750977 C22.63754807 50.46041779 22.31122894 49.72332581 21.97502136 48.96389771 C21.36418549 47.58343541 20.7538949 46.20273167 20.14424133 44.82174683 C18.62594922 41.38576838 18.62594922 41.38576838 17 38 C11.89980368 48.89937889 6.83954576 59.81669178 1.8125 70.75 C1.26397873 71.94258926 1.26397873 71.94258926 0.70437622 73.15927124 C-5.98853031 87.71933271 -12.52963975 102.33931032 -19 117 C-3.82 117 11.36 117 27 117 C40 144.44444444 40 144.44444444 40 147 C15.91 147.33 -8.18 147.66 -33 148 C-37.29 157.57 -41.58 167.14 -46 177 C-47 178 -47 178 -50.14282227 178.11352539 C-51.53402697 178.11336633 -52.92523761 178.10767506 -54.31640625 178.09765625 C-55.04746078 178.0962413 -55.77851532 178.09482635 -56.53172302 178.09336853 C-58.87535632 178.08775408 -61.21889539 178.07519922 -63.5625 178.0625 C-65.14778508 178.05748686 -66.73307166 178.05292363 -68.31835938 178.04882812 C-72.2122761 178.03777997 -76.10612205 178.02050572 -80 178 C-75.85598766 167.80128559 -71.34635021 157.77957589 -66.8125 147.75 C-66.01406552 145.9803854 -65.21581077 144.21068969 -64.41772461 142.44091797 C-62.76417248 138.77443981 -61.10985547 135.10830815 -59.45507812 131.44238281 C-57.12721239 126.28383052 -54.80473737 121.12286854 -52.484375 115.9609375 C-52.1189711 115.14812317 -51.7535672 114.33530884 -51.37709045 113.49786377 C-50.64088721 111.86023051 -49.90468624 110.22259624 -49.16848755 108.58496094 C-44.19461513 97.52196853 -39.213368 86.46240778 -34.20703125 75.4140625 C-33.80773407 74.53278687 -33.40843689 73.65151123 -32.99703979 72.74353027 C-29.72455461 65.52123216 -29.72455461 65.52123216 -28.18286133 62.11975098 C-21.7401372 47.90075309 -15.37256466 33.64954375 -9.07373047 19.36621094 C-8.76031204 18.65737762 -8.44689362 17.94854431 -8.12397766 17.2182312 C-7.28833972 15.32824564 -6.45475118 13.43735432 -5.62133789 11.54638672 C-3.84148039 7.6532667 -1.91438116 3.82876233 0 0 Z " fill="#5C3F2A" transform="translate(342,95)"/>
<path d="M0 0 C85.01989796 0 85.01989796 0 107.125 20.75 C120.12616469 34.16472062 126.53547746 52.14903755 126.35351562 70.61816406 C125.74854023 89.79588407 117.73485572 107.32630991 103.87109375 120.578125 C86.99403349 134.81455679 69.89484622 138.38279255 48.25 138.125 C46.76302693 138.11493973 45.27604719 138.10581932 43.7890625 138.09765625 C40.19256677 138.075908 36.596328 138.04155018 33 138 C34.76141537 132.61967668 36.59297968 127.28574611 38.625 122 C39.26308594 120.329375 39.26308594 120.329375 39.9140625 118.625 C41 116 41 116 42 115 C43.35844047 114.87929126 44.72250611 114.82046204 46.0859375 114.7890625 C62.22467128 114.28944949 76.87086369 112.45951461 89.1875 100.9375 C98.0461201 91.46794058 102.41828922 79.21282775 102.27734375 66.35546875 C101.16608619 52.91081742 94.87183238 41.62145808 84.71484375 32.9765625 C66.71712657 19.87318855 44.53604521 23.53840113 23 23 C23 60.95 23 98.9 23 138 C15.41 138 7.82 138 0 138 C0 92.46 0 46.92 0 0 Z " fill="#5C3F2A" transform="translate(526,289)"/>
<path d="M0 0 C44.22 0 88.44 0 134 0 C134 9.9 134 19.8 134 30 C116.84 30 99.68 30 82 30 C82 78.84 82 127.68 82 178 C72.1 178 62.2 178 52 178 C52 129.16 52 80.32 52 30 C34.84 30 17.68 30 0 30 C0 20.1 0 10.2 0 0 Z " fill="#5C3F2A" transform="translate(426,95)"/>
<path d="M0 0 C1.35177124 1.01762554 2.686655 2.05824223 4 3.125 C4.61101562 3.57617188 5.22203125 4.02734375 5.8515625 4.4921875 C15.04696695 11.66217247 21.20841337 22.638753 23 34.125 C24.02718448 49.49908896 21.19983716 62.60162697 10.89453125 74.5703125 C1.44658929 84.42479241 -9.09445855 90.05438085 -22.91333008 90.65087891 C-36.58495526 90.85426518 -47.7470856 87.55603749 -58 78.125 C-58.61230469 77.62613281 -59.22460938 77.12726563 -59.85546875 76.61328125 C-68.15250579 69.34192649 -73.42261098 56.96638848 -74.3359375 46.14453125 C-74.66532982 31.05302163 -70.71972587 19.76129153 -61 8.125 C-44.9023746 -7.52477801 -19.59997368 -12.70988054 0 0 Z " fill="#FEFDFD" transform="translate(467,315.875)"/>
<path d="M0 0 C10.04805877 10.04805877 16.84879187 22.50312859 17.0625 36.875 C16.91538123 51.34167918 12.00049782 62.09712732 2.1875 72.5234375 C-1.3372045 75.92060335 -4.86889793 78.51333902 -9.1875 80.8125 C-10.09628906 81.29847656 -11.00507813 81.78445313 -11.94140625 82.28515625 C-23.4593258 87.56604146 -37.42218986 87.9678146 -49.375 83.75 C-54.99466091 81.1916889 -59.63121876 77.95299892 -64.1875 73.8125 C-64.88617188 73.21695313 -65.58484375 72.62140625 -66.3046875 72.0078125 C-74.56926727 64.49172297 -79.95301416 53.57571179 -80.5234375 42.359375 C-80.69707262 33.18992248 -80.58828056 25.09171329 -76.1875 16.8125 C-75.70152344 15.89210938 -75.21554688 14.97171875 -74.71484375 14.0234375 C-67.82237055 2.19380265 -57.69272525 -5.91745244 -44.58984375 -9.99609375 C-28.08658051 -13.78844426 -13.69354964 -9.39753407 0 0 Z " fill="#FEFDFD" transform="translate(319.1875,320.1875)"/>
<path d="M0 0 C1.00780518 0.00684814 2.01561035 0.01369629 3.05395508 0.02075195 C11.22981156 0.19585051 18.09233183 1.45627041 25.75 4.4375 C26.80445313 4.81132812 27.85890625 5.18515625 28.9453125 5.5703125 C35.81908906 8.17166654 41.23013698 11.60065033 46.75 16.4375 C41.76595832 22.47081362 36.33084697 27.9559171 30.75 33.4375 C30.04875 32.96699219 29.3475 32.49648438 28.625 32.01171875 C17.49343394 24.70662852 6.67162747 20.21393512 -6.859375 22.96875 C-12.64380594 24.75454747 -16.71139359 27.05000729 -20.0625 32.25 C-22.00990191 37.47723671 -21.88329818 40.90702939 -19.75 46.0625 C-14.69798786 53.81353232 -5.92716792 55.63456641 2.44921875 58.125 C20.04379826 63.39977741 40.01868316 70.73358855 49.75 87.4375 C52.51333965 92.85179467 53.26738849 97.13916804 53.1875 103.1875 C53.18137695 103.97737305 53.17525391 104.76724609 53.16894531 105.58105469 C52.86965822 116.83885386 48.8283341 125.70681718 40.6875 133.5 C28.6721485 143.78482624 14.06237604 145.43545526 -1.25 144.4375 C-14.31909449 142.64644637 -27.259573 137.80843818 -38.25 130.4375 C-39.24 129.1175 -40.23 127.7975 -41.25 126.4375 C-36.3 121.4875 -31.35 116.5375 -26.25 111.4375 C-22.68635943 112.86295623 -20.67113345 113.72787295 -17.75 115.8125 C-9.35742458 121.13886143 0.86047692 123.85233061 10.75 122.4375 C17.28950761 120.81992338 22.58221825 118.85561628 26.75 113.4375 C28.68298362 107.63854913 28.83266494 101.64447085 26.125 96.125 C19.39740215 89.655447 8.57369589 87.35041556 -0.09985352 84.57397461 C-16.85319312 79.19467631 -34.27154543 72.74250735 -42.8125 56.125 C-47.18587689 46.64728521 -47.721888 36.83743591 -44.28515625 26.87890625 C-39.56059103 15.73606375 -32.49687977 8.02974977 -21.25 3.4375 C-14.10883052 0.79629994 -7.59205742 -0.07979544 0 0 Z " fill="#5D402B" transform="translate(705.25,285.5625)"/>
<path d="M0 0 C30.69 0 61.38 0 93 0 C93 7.59 93 15.18 93 23 C70.23 23 47.46 23 24 23 C24 34.22 24 45.44 24 57 C41.16 57 58.32 57 76 57 C81 77 81 77 81 81 C62.19 81 43.38 81 24 81 C24 99.81 24 118.62 24 138 C16.08 138 8.16 138 0 138 C0 92.46 0 46.92 0 0 Z " fill="#5E412C" transform="translate(121,289)"/>
<path d="M0 0 C10.23 0 20.46 0 31 0 C31 58.74 31 117.48 31 178 C20.77 178 10.54 178 0 178 C0 119.26 0 60.52 0 0 Z " fill="#604430" transform="translate(728,95)"/>
<path d="M0 0 C24.42 0 48.84 0 74 0 C74 24.42 74 48.84 74 74 C73.67 74 73.34 74 73 74 C73 49.91 73 25.82 73 1 C60.13 1.33 47.26 1.66 34 2 C32.68 4.64 31.36 7.28 30 10 C25.34687032 15.74021456 19.36129936 19.19283998 12 20 C2.2364395 19.2364395 2.2364395 19.2364395 0 17 C0 11.39 0 5.78 0 0 Z " fill="#F6F6F5" transform="translate(605,199)"/>
<path d="M0 0 C15.51 0 31.02 0 47 0 C47 6 47 6 45.375 8.6875 C41.16944273 12.78238471 37.12683928 14.3657144 31.24047852 14.46826172 C30.56299561 14.45811035 29.8855127 14.44795898 29.1875 14.4375 C28.47972412 14.42992676 27.77194824 14.42235352 27.04272461 14.41455078 C21.17093413 14.23002611 16.93282252 13.09845884 12 10 C11.19691406 9.51789063 10.39382813 9.03578125 9.56640625 8.5390625 C5.41491967 5.92196536 3.01398484 4.01864646 0 0 Z " fill="#F7CF79" transform="translate(681,388)"/>
<path d="M0 0 C18.81 0 37.62 0 57 0 C49.36625725 7.63374275 42.7181046 10.85944368 32 12 C31.26007813 12.08378906 30.52015625 12.16757812 29.7578125 12.25390625 C19.4252891 12.84055135 8.81406502 8.63816203 1 2 C0.67 1.34 0.34 0.68 0 0 Z " fill="#F7CF7A" transform="translate(413,388)"/>
<path d="M0 0 C16.83 0 33.66 0 51 0 C47.49749875 3.50250125 46.25596905 4.59168564 41.9375 6.1875 C41.08027344 6.51105469 40.22304688 6.83460938 39.33984375 7.16796875 C35.37950695 8.57623543 32.22315405 9.17286791 28.01953125 9.31640625 C26.85615234 9.35830078 25.69277344 9.40019531 24.49414062 9.44335938 C22.67172852 9.50233398 22.67172852 9.50233398 20.8125 9.5625 C19.58595703 9.60568359 18.35941406 9.64886719 17.09570312 9.69335938 C14.06393808 9.79953014 11.031984 9.90027764 8 10 C5.69 15.61 3.38 21.22 1 27 C0.67 27 0.34 27 0 27 C0 18.09 0 9.18 0 0 Z " fill="#F7CF79" transform="translate(556,388)"/>
<path d="M0 0 C18.81 0 37.62 0 57 0 C48.49232897 8.50767103 39.46603797 11.89657763 27.375 12.375 C18.00049297 11.96368708 9.47647311 8.61832813 2 3 C1.34 2.01 0.68 1.02 0 0 Z " fill="#F7CF7A" transform="translate(259,388)"/>
<path d="M0 0 C0.7734375 -0.01417969 1.546875 -0.02835937 2.34375 -0.04296875 C4.5 0.1875 4.5 0.1875 7.5 2.1875 C7.17 4.4975 6.84 6.8075 6.5 9.1875 C5.85933594 9.06890625 5.21867188 8.9503125 4.55859375 8.828125 C3.69363281 8.69921875 2.82867188 8.5703125 1.9375 8.4375 C1.09058594 8.29828125 0.24367188 8.1590625 -0.62890625 8.015625 C-3.76981664 8.20365229 -6.36578832 8.61741307 -9.07055664 10.30175781 C-12.59463401 14.95077124 -11.48309531 22.29992132 -11.4375 27.9375 C-11.45061155 29.41279194 -11.46685271 30.8880596 -11.48632812 32.36328125 C-11.52714673 35.97178085 -11.52501652 39.57878822 -11.5 43.1875 C-11.83 43.1875 -12.16 43.1875 -12.5 43.1875 C-12.5 29.6575 -12.5 16.1275 -12.5 2.1875 C-10.85 1.8575 -9.2 1.5275 -7.5 1.1875 C-4.71398777 0.25882926 -2.88933911 0.02407783 0 0 Z " fill="#EFEFEF" transform="translate(721.5,92.8125)"/>
<path d="M0 0 C12.87 0 25.74 0 39 0 C39 0.33 39 0.66 39 1 C28.605 1.495 28.605 1.495 18 2 C18.33 3.65 18.66 5.3 19 7 C18.01 8.485 18.01 8.485 17 10 C13.75 9.875 13.75 9.875 10 9 C6 4.17948718 6 4.17948718 6 1 C4.02 1 2.04 1 0 1 C0 0.67 0 0.34 0 0 Z " fill="#E6E4E2" transform="translate(152,125)"/>
<path d="M0 0 C0.33 0.66 0.66 1.32 1 2 C-2.63 2 -6.26 2 -10 2 C-7.88183873 -2.23632253 -3.91352847 -0.93584376 0 0 Z " fill="#F1F1F1" transform="translate(48,564)"/>
</svg>
